<svg xmlns="http://www.w3.org/2000/svg" id="Layer_1" x="0" y="0" enable-background="new 0 0 128 128" version="1.1" viewBox="0 0 128 128" xml:space="preserve" style="&#10;    background: red;&#10;"><polygon fill="#fff" points="13.08 124 63.58 96.65 114.08 124"/><path fill="#fff" d="M70.53,8.29L70.53,8.29c13.89,2.74,24.59,13.87,26.78,27.86l0,0c1.12,7.18,1.01,14.5-0.33,21.64l-5.75,30.69    c-0.78,4.14-3.32,7.73-6.97,9.84l-10.77,6.21c-5.87,3.39-13.1,3.39-18.97,0l-10.77-6.21c-3.65-2.1-6.19-5.7-6.97-9.84l-5.75-30.69    c-1.34-7.14-1.45-14.46-0.33-21.64l0,0c2.19-13.99,12.88-25.12,26.78-27.86l0,0C61.78,7.44,66.22,7.44,70.53,8.29z"/><polygon fill="#464c54" points="86 73 95 65 93 73"/><path fill="#464c54" d="M104.13,53.79c-0.74-1.43-1.88-2.5-3.23-3.13c0.29-4.19,0.19-8.41-0.31-12.6    C98.84,23.39,85.91,8.4,71.44,5.41c-4.82-1-9.72-1.02-14.55-0.07c-1.62,0.32-3.23,0.75-4.78,1.28c-1.4,0.48-2.35,1.85-2.13,3.31    c0.02,0.12,0.06,0.23,0.09,0.35c0.01,0.07,0.03,0.13,0.05,0.19c0.02,0.06,0.04,0.13,0.07,0.19c0.16,0.44,0.42,0.86,0.79,1.2    l0.29,0.27c3.63,3.3,8.17,4.95,12.72,4.95c3.15,0,6.29-0.8,9.13-2.38c1.85-1.03,4.1-1.12,5.94-0.08c3.48,1.97,6.53,4.6,8.99,7.71    c1.31,1.66,1.64,3.89,0.88,5.87l-2.38,6.18c-1.27,3.3-0.36,7.04,2.28,9.39l6.14,5.46c-0.14,2.68-0.46,5.36-0.95,8.02l-0.35,1.85    c-0.45,2.39-1.68,4.56-3.49,6.18l-6.06,5.39c-0.8,0.72-1.27,1.79-1.09,2.85C83.3,74.97,84.56,76,86,76h2.1    c1.25,0,2.2,1.14,1.97,2.37l-1.79,9.56c-0.61,3.28-2.63,6.12-5.52,7.79l-10.77,6.21c-4.94,2.85-11.03,2.85-15.97,0l-10.77-6.21    c-2.89-1.67-4.9-4.51-5.52-7.79l-5.75-30.69c-0.55-2.94-0.87-5.91-0.99-8.88l5.17-4.59c2.63-2.33,3.54-6.11,2.28-9.39l-3.58-9.3    c-0.58-1.5-2.21-2.42-3.74-1.94c-0.88,0.27-1.53,0.9-1.87,1.68c-0.03,0.04-0.06,0.08-0.08,0.13c-1.69,3.38-2.85,7-3.43,10.75    c-0.78,4.97-0.98,9.97-0.63,14.96c-0.98,0.45-1.85,1.13-2.54,2.01c-1.32,1.69-1.78,3.85-1.26,5.92l3.79,15.15    C27.42,75.06,28.62,76,30,76h1.39l2.44,13.03c0.94,5.01,4.01,9.34,8.42,11.88l10.77,6.21c3.39,1.96,7.19,2.93,10.98,2.93    c3.8,0,7.6-0.98,10.98-2.93l10.77-6.21c4.41-2.55,7.48-6.88,8.42-11.88L96.61,76h1.35c1.38,0,2.58-0.94,2.91-2.27l3.73-14.93    C105.03,57.12,104.92,55.32,104.13,53.79z"/><path fill="#464c54" d="M71 97.67H57c-1.66 0-3-1.34-3-3s1.34-3 3-3h14c1.66 0 3 1.34 3 3S72.66 97.67 71 97.67zM64 88.44c-2.21 0-4.41-.59-6.38-1.77l-.17-.1c-1.42-.85-1.88-2.69-1.03-4.12.85-1.42 2.69-1.88 4.12-1.03l.17.1c2.03 1.22 4.55 1.22 6.58 0l.17-.1c1.42-.85 3.26-.39 4.12 1.03.85 1.42.39 3.26-1.03 4.12l-.17.1C68.41 87.85 66.2 88.44 64 88.44zM70.05 48.58C75.51 49.2 80.89 50.68 86 53l0 0"/><path fill="#464c54" d="M87.24 50.27L87.24 50.27c-5.35-2.43-11.02-4-16.85-4.67-1.63-.19-3.13.99-3.32 2.64C67.06 48.31 67 48.81 67 49v8c0 1.66 1.34 3 3 3s3-1.34 3-3v-1h12.99c0 0 .01 0 .01 0l0 0h0c1.51 0 2.79-1.13 2.98-2.63C89.14 52.05 88.42 50.8 87.24 50.27zM42 53L42 53c5.11-2.32 10.49-3.8 15.95-4.42"/><path fill="#464c54" d="M60.93 48.24c-.19-1.65-1.69-2.84-3.32-2.64-5.83.67-11.5 2.24-16.85 4.67l0 0c-1.17.53-1.9 1.78-1.74 3.1C39.21 54.87 40.49 56 42 56h13v1c0 1.66 1.34 3 3 3s3-1.34 3-3v-8C61 48.81 60.94 48.31 60.93 48.24zM49.46 122.17l-10-13c-.9-1.17-2.51-1.51-3.81-.81l-24 13c-1.21.65-1.82 2.04-1.48 3.38.34 1.33 1.54 2.26 2.91 2.26h34c1.14 0 2.19-.65 2.69-1.67S50.16 123.08 49.46 122.17z"/><g><path fill="#464c54" d="M66,127h-4c-0.91,0-1.77-0.41-2.34-1.13l-4-5c-0.72-0.9-0.86-2.13-0.36-3.17c0.5-1.04,1.55-1.7,2.7-1.7h12    c1.15,0,2.2,0.66,2.7,1.7c0.5,1.04,0.36,2.27-0.36,3.17l-4,5C67.77,126.59,66.91,127,66,127z"/></g><path fill="#464c54" d="M115.51,121.36l-24-13c-1.29-0.7-2.91-0.36-3.81,0.81l-10,13c-0.7,0.91-0.82,2.13-0.31,3.15   s1.55,1.67,2.69,1.67h34c1.37,0,2.57-0.93,2.91-2.26C117.33,123.41,116.72,122.02,115.51,121.36z"/></svg>