<svg width="50" height="50" viewBox="0 0 50 50" fill="none" xmlns="http://www.w3.org/2000/svg">
<circle cx="23.5" cy="26.5" r="18.5" fill="black"/>
<path d="M25 0C11.1914 0 0 11.1914 0 25C0 38.8086 11.1914 50 25 50C38.8086 50 50 38.8086 50 25C50 11.1914 38.8086 0 25 0ZM34.9805 21.1133C34.9902 21.3281 34.9902 21.5527 34.9902 21.7774C34.9902 28.5644 29.8242 36.3965 20.3711 36.3965C17.4707 36.3965 14.7656 35.5469 12.5 34.0918C12.9004 34.1406 13.3106 34.1601 13.7305 34.1601C16.1328 34.1601 18.3496 33.3398 20.1074 31.9629C17.8613 31.9238 15.9571 30.4394 15.3125 28.3984C15.625 28.457 15.9472 28.4863 16.2793 28.4863C16.7481 28.4863 17.2071 28.4278 17.6367 28.3008C15.2832 27.832 13.5156 25.7519 13.5156 23.2617V23.2031C14.209 23.584 15 23.8184 15.8398 23.8477C14.4629 22.9297 13.5547 21.3476 13.5547 19.5703C13.5547 18.6328 13.8086 17.7441 14.2481 16.9824C16.7871 20.0976 20.5664 22.1387 24.834 22.3535C24.7461 21.9824 24.6973 21.5918 24.6973 21.1816C24.6973 18.3496 27.0019 16.0449 29.834 16.0449C31.3086 16.0449 32.6465 16.6699 33.584 17.666C34.7559 17.4316 35.8496 17.0118 36.8457 16.416C36.4648 17.6172 35.6446 18.6231 34.5899 19.2578C35.625 19.1309 36.6211 18.8574 37.5391 18.4473C36.8554 19.4824 35.9863 20.3809 34.9805 21.1133Z" fill="white"/>
</svg>
