<svg width="50" height="50" viewBox="0 0 50 50" fill="none" xmlns="http://www.w3.org/2000/svg">
<circle cx="24.5" cy="26.5" r="18.5" fill="black"/>
<path d="M35.2208 14.9651C35.2307 14.9651 35.244 14.9651 35.2573 14.9651C35.6043 14.9651 35.9263 15.073 36.1902 15.259L36.1853 15.2556C36.3778 15.4233 36.5073 15.659 36.5388 15.9246V15.9296C36.572 16.1321 36.5903 16.3645 36.5903 16.6019C36.5903 16.7098 36.587 16.8161 36.5787 16.9223V16.9074C36.2052 20.84 34.585 30.3768 33.7616 34.7792C33.413 36.6434 32.7274 37.2676 32.0634 37.3274C30.6209 37.4618 29.5252 36.3745 28.1275 35.4582C25.9396 34.0222 24.7029 33.1292 22.5797 31.7297C20.1245 30.1145 21.7165 29.2231 23.1142 27.7722C23.4811 27.3904 29.8406 21.6052 29.9651 21.0807C29.9718 21.0491 29.9751 21.0143 29.9751 20.9778C29.9751 20.8483 29.927 20.7304 29.8489 20.6408C29.7626 20.5843 29.6547 20.5528 29.5418 20.5528C29.4671 20.5528 29.3958 20.5677 29.3294 20.5926L29.3327 20.591C29.1135 20.6408 25.6187 22.9504 18.8479 27.5199C18.1092 28.1026 17.1763 28.4711 16.1604 28.5143H16.1504C14.7112 28.34 13.4047 28.0196 12.1647 27.5631L12.2875 27.6029C10.7304 27.095 9.49369 26.8277 9.59993 25.9678C9.65637 25.5207 10.2728 25.0631 11.4492 24.595C18.6958 21.4376 23.5281 19.3564 25.9462 18.3516C28.6139 16.9356 31.7065 15.7703 34.9585 15.0149L35.2191 14.9635L35.2208 14.9651ZM24.9419 0C11.1604 0.0332005 0 11.2135 0 25C0 38.8064 11.1919 50 25 50C38.8081 50 50 38.8081 50 25C50 11.2135 38.8396 0.0332005 25.0614 0H25.0581C25.0194 0 24.9806 0 24.9419 0Z" fill="white"/>
</svg>
